<svg width="195" height="194" viewBox="0 0 195 194" fill="none" xmlns="http://www.w3.org/2000/svg">
<path d="M173.81 152.013C170.615 148.817 166.361 147.332 162.169 147.576L150.934 136.342C155.493 130.521 159.258 124.13 162.169 117.251C166.565 106.83 168.804 95.7788 168.804 84.4018C168.804 73.0248 166.565 61.953 162.169 51.5529C157.915 41.4987 151.83 32.4826 144.076 24.7283C136.321 16.974 127.305 10.8886 117.251 6.63491C106.83 2.23878 95.7788 0 84.402 0C73.025 0 61.9532 2.23878 51.5531 6.63491C41.4989 10.8682 32.4828 16.9536 24.7285 24.7079C16.9742 32.4622 10.8888 41.4784 6.63512 51.5325C2.23878 61.9532 0 73.0046 0 84.3817C0 95.7585 2.23877 106.83 6.63491 117.231C10.8886 127.285 16.974 136.301 24.7283 144.055C32.4826 151.81 41.4987 157.895 51.5529 162.148C61.9734 166.545 73.0248 168.784 84.4018 168.784C95.7786 168.784 106.851 166.545 117.251 162.148C124.211 159.197 130.683 155.392 136.565 150.731L147.779 161.945C147.555 166.138 149.021 170.391 152.216 173.587L168.152 189.522C171.124 192.494 175.031 194 178.939 194C182.847 194 186.754 192.514 189.726 189.522C195.689 183.559 195.689 173.892 189.726 167.928L173.81 152.013ZM136.402 121.79C134.388 124.557 132.149 127.203 129.686 129.666C127.285 132.068 124.72 134.245 122.033 136.199C111.165 144.136 98.0988 148.41 84.3812 148.41C67.2648 148.41 51.1863 141.755 39.0969 129.646C27.0076 117.556 20.3319 101.457 20.3319 84.3613C20.3319 67.2652 26.9872 51.1664 39.0969 39.077C51.1863 26.9876 67.2851 20.312 84.3812 20.312C101.477 20.312 117.576 26.9673 129.666 39.077C141.755 51.1664 148.431 67.2652 148.431 84.3613C148.451 97.9975 144.238 110.962 136.402 121.79Z" fill="#1672BB"/>
<path d="M78.5606 39.3213H90.2633C93.9268 39.3213 96.9593 42.2113 97.5292 45.9562H107.766C107.115 36.5737 99.5237 29.145 90.2633 29.145H78.5606C69.3003 29.145 61.7088 36.5737 61.0575 45.9562H71.2948C71.8443 42.191 74.8972 39.3213 78.5606 39.3213Z" fill="#1672BB"/>
<path d="M107.807 51.0443H97.631H71.1727H60.9965H44.4092C41.3156 51.0443 37.8353 53.9954 35.9425 55.8475C34.7621 57.2722 34.5382 58.2491 34.64 59.3481C35.393 66.6547 40.2573 73.5338 48.5 78.9476C55.8066 83.7304 64.9856 86.8851 74.999 88.0859C78.0519 88.4522 81.2065 88.6557 84.3815 88.6557C90.2634 88.6557 96.003 88.0044 101.376 86.7629C108.438 85.1347 114.87 82.4889 120.283 78.9476C128.526 73.5338 133.37 66.6343 134.143 59.3481C134.266 58.2287 133.655 56.6209 132.841 55.8475C130.948 53.9954 127.468 51.0443 124.374 51.0443H107.807Z" fill="#1672BB"/>
<path d="M124.781 85.7657C119.856 89.0017 114.198 91.5865 108.052 93.4182C100.704 95.6366 92.6854 96.7969 84.402 96.7969C83.8118 96.7969 83.2012 96.7969 82.611 96.7764C68.0793 96.4916 54.4431 92.6041 44.0224 85.7657C39.6263 82.8756 35.9832 79.5785 33.1338 75.9354C32.4419 75.0399 31.933 75.2027 31.933 76.3219V104.693C31.933 111.878 37.5096 117.719 44.3888 117.719H103.513H124.374C126.633 117.719 128.75 117.088 130.561 115.989C134.306 113.75 136.83 109.537 136.83 104.693V76.3425C136.83 75.2231 136.321 75.0602 135.629 75.9558C132.82 79.5783 129.177 82.8756 124.781 85.7657Z" fill="#1672BB"/>
</svg>
