<svg width="80" height="180" viewBox="0 0 80 180" fill="none" xmlns="http://www.w3.org/2000/svg">
<path d="M47.8425 43.9391C56.6418 43.9391 63.7749 36.8059 63.7749 28.0067C63.7749 19.2075 56.6418 12.0743 47.8425 12.0743C39.0433 12.0743 31.9102 19.2075 31.9102 28.0067C31.9102 36.8059 39.0433 43.9391 47.8425 43.9391Z" fill="#1672BB"/>
<path d="M79.3747 77.5696C78.2653 69.674 78.0004 61.6578 75.861 53.9359C73.0124 43.6684 58.1718 46.8496 58.1453 56.1136C57.957 55.8988 57.7421 55.7045 57.5538 55.4897C56.05 53.7711 54.3549 52.903 52.6569 52.6499C49.5317 46.776 43.134 43.0092 36.0742 43.5772C34.3468 43.7185 32.7017 44.1157 31.1656 44.719C24.8592 32.73 20.6215 20.0112 18.076 6.51837C15.9159 -4.89973 -1.44958 -0.0499793 0.695727 11.3093C4.09762 29.334 10.5483 46.5141 20.3154 62.0669C20.3154 62.0845 20.3154 62.1022 20.3154 62.1228C21.1718 72.5698 20.1006 89.7999 19.4385 97.8632C19.1324 98.3459 18.8382 98.8461 18.6027 99.4082V99.4053C9.21223 121.744 5.60728 147.314 3.77685 171.333C2.8999 182.931 20.9305 182.846 21.8045 171.333C23.1523 153.653 25.7567 135.222 31.0567 117.986C32.2044 118.36 33.4051 118.622 34.6558 118.748C36.1419 136.835 37.3896 154.936 39.9675 172.911C41.6214 184.376 58.984 179.476 57.3537 168.114C54.6581 149.336 53.737 130.328 52.0831 111.447C52.0213 110.741 51.8977 110.079 51.7152 109.458C52.6746 107.566 53.3073 105.47 53.5133 103.228C53.581 102.498 54.6463 90.8711 54.9523 78.2023C58.0423 80.9332 61.2029 83.5935 64.3075 86.3333C71.5321 92.7104 80.6078 86.348 79.3747 77.5696Z" fill="#1672BB"/>
</svg>
