<svg width="148" height="148" viewBox="0 0 148 148" fill="none" xmlns="http://www.w3.org/2000/svg">
<path d="M74 0C52.4825 0 34.9766 17.5059 34.9766 39.0234C34.9766 60.541 52.4825 78.0469 74 78.0469C95.5175 78.0469 113.023 60.541 113.023 39.0234C113.023 17.5059 95.5175 0 74 0Z" fill="#1672BB"/>
<path d="M122.553 103.541C111.869 92.6928 97.7057 86.7188 82.6719 86.7188H65.3281C50.2946 86.7188 36.1311 92.6928 25.4473 103.541C14.8159 114.335 8.96094 128.585 8.96094 143.664C8.96094 146.059 10.9023 148 13.2969 148H134.703C137.098 148 139.039 146.059 139.039 143.664C139.039 128.585 133.184 114.335 122.553 103.541Z" fill="#1672BB"/>
</svg>
