<svg width="46" height="46" viewBox="0 0 46 46" fill="none" xmlns="http://www.w3.org/2000/svg">
<path d="M41.1706 36.0443C40.4138 35.2866 39.4062 34.9344 38.4131 34.9922L35.7519 32.3284C36.8318 30.9482 37.7237 29.4329 38.4131 27.8017C39.4544 25.3309 39.9847 22.7105 39.9847 20.0128C39.9847 17.3151 39.4544 14.6899 38.4131 12.2239C37.4056 9.83991 35.9641 7.70206 34.1273 5.86341C32.2905 4.02476 30.1549 2.58183 27.7733 1.57323C25.305 0.530844 22.6872 0 19.9924 0C17.2975 0 14.6749 0.530844 12.2114 1.57323C9.8299 2.577 7.69423 4.01993 5.85746 5.85858C4.02069 7.69723 2.57924 9.83508 1.57167 12.2191C0.530301 14.6899 0 17.3104 0 20.008C0 22.7056 0.530301 25.3309 1.57162 27.7969C2.57919 30.1809 4.02065 32.3187 5.85742 34.1575C7.69419 35.9961 9.82985 37.439 12.2114 38.4475C14.6797 39.49 17.2975 40.0209 19.9923 40.0209C22.6872 40.0209 25.3098 39.49 27.7733 38.4475C29.422 37.7478 30.9551 36.8454 32.3483 35.7402L35.0046 38.3993C34.9516 39.3935 35.2988 40.402 36.0557 41.1597L39.8304 44.9383C40.5343 45.643 41.4599 46 42.3855 46C43.3111 46 44.2367 45.6478 44.9406 44.9383C46.3531 43.5244 46.3531 41.2321 44.9406 39.8181L41.1706 36.0443ZM32.3098 28.8779C31.8325 29.5342 31.3022 30.1616 30.7189 30.7455C30.15 31.315 29.5426 31.8313 28.9062 32.2946C26.3319 34.1767 23.2368 35.1901 19.9875 35.1901C15.9331 35.1901 12.1246 33.6121 9.26094 30.7407C6.39731 27.8742 4.81605 24.0569 4.81605 20.0032C4.81605 15.9495 6.39249 12.1322 9.26094 9.26568C12.1246 6.39913 15.9379 4.81625 19.9875 4.81625C24.0371 4.81625 27.8504 6.3943 30.714 9.26568C33.5777 12.1322 35.1589 15.9495 35.1589 20.0032C35.1638 23.2365 34.1659 26.3105 32.3098 28.8779Z" fill="#1672BB"/>
</svg>
